# xmcd CD database file
#
# Track frame offsets:
#	150
#	15660
#	29440
#	44945
#	58422
#	71462
#	85677
#	98900
#	111492
#	122355
#	132560
#	146507
#	157235
#	169332
#	183140
#
# Disc length: 2615 seconds
#
# Revision: 0
# Processed by: cddbd v1.5.1PL0 Copyright (c) Steve Scherf et al.
# Submitted via: CDex 1.51
#
DISCID=dd0a350f
DTITLE=Living The Blues - Chicago Blues CD 2
DYEAR=1997
DGENRE=Blues
TTITLE0=Muddy Waters - They Call Me Muddy Waters
TTITLE1=Memphis Minnie - Me And My Chauffeur
TTITLE2=Floyd Jones - Dark Roads
TTITLE3=Eddie Boyd - Picture In The Frame
TTITLE4=Jimmy Rogers - Ludella
TTITLE5=J.B. Lenoir - Man Watch Your Woman
TTITLE6=Little Walter - Mean Old World
TTITLE7=Jimmy Reed - High And Lonesome
TTITLE8=Howlin' Wolf - Who's Been Talkin'
TTITLE9=Billy Boy Arnold - I Ain't Got You
TTITLE10=Koko Taylor - I Got What It Takes
TTITLE11=Otis Rush - Keep On Loving Me Baby
TTITLE12=Otis Spann - I'm Leaving You
TTITLE13=Sonny Boy Williamson - Lonesome Cabin
TTITLE14=Buddy Guy - Let Me Love You Baby
EXTD=YEAR: 1997
EXTT0=
EXTT1=
EXTT2=
EXTT3=
EXTT4=
EXTT5=
EXTT6=
EXTT7=
EXTT8=
EXTT9=
EXTT10=
EXTT11=
EXTT12=
EXTT13=
EXTT14=
PLAYORDER=
